# xmcd
#
# Track frame offsets:
#	150
#	12702
#	33637
#	49330
#	76612
#	88667
#	106417
#	125312
#	148715
#	169487
#
# Disc length: 2420 seconds
#
# Revision: 1
# Processed by: cddbd v1.5.1PL2 Copyright (c) Steve Scherf et al.
# Submitted via: audiograbber 1.83.01
#
DISCID=8609720a
DTITLE=Paul Daraiche - La vie d'artiste
DYEAR=1900
DGENRE=
TTITLE0=A bout de souffle
TTITLE1=J'ai peur de vivre
TTITLE2=Highway lady
TTITLE3=Le blues de l'artiste
TTITLE4=J'suis en amour
TTITLE5=Les enfants
TTITLE6=Six heures moins quart
TTITLE7=Rosalie
TTITLE8=Est trop longue
TTITLE9=A chacun de mes enfants
EXTD=
EXTT0=
EXTT1=
EXTT2=
EXTT3=
EXTT4=
EXTT5=
EXTT6=
EXTT7=
EXTT8=
EXTT9=
PLAYORDER=
